<?xml version="1.0" encoding="utf-8"?>
<svg version="1.1" xmlns="http://www.w3.org/2000/svg" xmlns:xlink="http://www.w3.org/1999/xlink" x="0px" y="0px"
	 viewBox="0 0 30 30" style="enable-background:new 0 0 30 30;" xml:space="preserve">
<defs>
  <style type="text/css">
    .st194{fill:#1a1033;stroke:#8b5cf6;stroke-width:0.6317;stroke-miterlimit:10;}
    .st23{fill:#8b5cf6;}

    .z-breathe {
      animation: breathe 2.5s ease-in-out infinite;
    }

    .z-glow {
      filter: drop-shadow(0 0 3px rgba(139, 92, 246, 0.6)) drop-shadow(0 0 8px rgba(139, 92, 246, 0.3));
      animation: logoGlow 3s ease-in-out infinite;
    }

    @keyframes breathe {
      0%, 100% { opacity: 0.8; }
      50% { opacity: 1; }
    }

    @keyframes logoGlow {
      0%, 100% {
        filter: drop-shadow(0 0 3px rgba(139, 92, 246, 0.6)) drop-shadow(0 0 8px rgba(139, 92, 246, 0.3));
      }
      50% {
        filter: drop-shadow(0 0 6px rgba(139, 92, 246, 0.9)) drop-shadow(0 0 14px rgba(139, 92, 246, 0.5)) drop-shadow(0 0 22px rgba(167, 139, 250, 0.3));
      }
    }
  </style>
</defs>

<g>
  <path class="st194" d="M24.51,28.51H5.49c-2.21,0-4-1.79-4-4V5.49c0-2.21,1.79-4,4-4h19.03c2.21,0,4,1.79,4,4v19.03
    C28.51,26.72,26.72,28.51,24.51,28.51z"/>
  <g class="z-breathe z-glow">
    <path class="st23" d="M15.47,7.1l-1.3,1.85c-0.2,0.29-0.54,0.47-0.9,0.47h-7.1V7.09C6.16,7.1,15.47,7.1,15.47,7.1z"/>
    <polygon class="st23" points="24.3,7.1 13.14,22.91 5.7,22.91 16.86,7.1"/>
    <path class="st23" d="M14.53,22.91l1.31-1.86c0.2-0.29,0.54-0.47,0.9-0.47h7.09v2.33H14.53z"/>
  </g>
</g>
</svg>
